<?xml version="1.0" standalone="no"?>
<!DOCTYPE svg PUBLIC "-//W3C//DTD SVG 20010904//EN"
 "http://www.w3.org/TR/2001/REC-SVG-20010904/DTD/svg10.dtd">
<svg version="1.0" xmlns="http://www.w3.org/2000/svg"
 width="512.000000pt" height="512.000000pt" viewBox="0 0 512.000000 512.000000"
 preserveAspectRatio="xMidYMid meet">

<g transform="translate(0.000000,512.000000) scale(0.100000,-0.100000)"
fill="#000000" stroke="none">
<path d="M2337 3493 c-4 -3 -7 -183 -7 -400 l0 -393 -604 0 c-648 0 -637 1
-621 -50 6 -20 10 -20 616 -20 l609 0 0 -499 0 -500 22 -7 c49 -15 48 -35 48
934 0 603 -3 910 -10 923 -10 19 -40 26 -53 12z"/>
<path d="M2736 2904 c-14 -13 -16 -59 -16 -344 0 -285 2 -331 16 -344 18 -18
17 -18 38 -10 14 5 16 34 16 215 l0 209 606 2 c554 3 608 4 617 20 8 12 7 21
-2 32 -12 14 -79 16 -617 16 l-604 0 0 104 c0 85 -3 105 -16 110 -21 8 -20 8
-38 -10z"/>
</g>
</svg>
