<?xml version="1.0" standalone="no"?>
<!DOCTYPE svg PUBLIC "-//W3C//DTD SVG 20010904//EN"
 "http://www.w3.org/TR/2001/REC-SVG-20010904/DTD/svg10.dtd">
<svg version="1.0" xmlns="http://www.w3.org/2000/svg"
 width="5%" height="5%" viewBox="0 0 826.000000 826.000000"
 preserveAspectRatio="xMidYMid meet">

<g transform="translate(0.000000,826.000000) scale(0.100000,-0.100000)"
fill="#ffffff" stroke="none">
<path d="M2735 4890 l-790 -790 48 -47 47 -48 744 744 745 745 741 -742 c408
-408 745 -742 749 -742 4 0 27 20 51 45 l45 45 -790 790 c-435 435 -792 790
-795 790 -3 0 -361 -355 -795 -790z"/>
<path d="M2952 4777 l-573 -573 3 -617 3 -617 30 -30 30 -30 810 0 c446 0 933
0 1084 0 l274 0 33 35 c29 32 38 35 87 35 129 0 234 39 310 116 65 66 95 134
106 236 9 95 33 150 85 196 57 50 116 62 308 62 l167 0 15 -27 c17 -33 60 -75
96 -94 27 -14 252 -26 295 -15 20 5 25 13 25 36 l0 30 73 0 c61 0 77 3 92 20
15 16 16 25 7 45 -10 22 -17 24 -89 27 l-78 3 0 34 0 35 67 -3 c56 -2 70 1 87
18 47 47 9 81 -91 81 l-68 0 0 31 0 30 -159 -3 -159 -3 -38 -31 c-21 -16 -45
-44 -53 -61 l-16 -31 -210 -4 c-207 -3 -211 -3 -267 -31 -125 -61 -194 -165
-209 -314 -10 -99 -33 -147 -91 -197 -51 -44 -91 -56 -190 -56 l-78 0 0 553 0
552 -568 568 c-312 312 -569 567 -572 567 -3 0 -263 -258 -578 -573z m423
-482 c24 -23 25 -29 25 -163 0 -126 -2 -142 -21 -166 -20 -26 -20 -26 -169
-26 -204 0 -195 -9 -195 190 0 198 -8 190 192 190 139 0 145 -1 168 -25z m645
5 c18 -18 20 -33 20 -170 0 -199 9 -190 -187 -190 -200 0 -193 -7 -193 189 0
198 -7 191 192 191 135 0 150 -2 168 -20z m-645 -485 c24 -23 25 -29 25 -163
0 -126 -2 -142 -21 -166 -20 -26 -20 -26 -169 -26 -200 0 -194 -5 -198 165 -4
141 0 167 28 195 18 18 34 20 165 20 142 0 147 -1 170 -25z m642 3 c22 -21 23
-28 23 -170 0 -197 9 -188 -190 -188 -199 0 -190 -9 -190 184 0 130 2 146 21
170 20 26 21 26 167 26 136 0 147 -1 169 -22z"/>
<path d="M2121 2809 c-52 -16 -109 -56 -135 -97 -27 -40 -50 -117 -41 -132 3
-5 627 -9 1585 -9 l1580 0 0 30 c0 69 -57 150 -135 192 l-40 22 -1390 2 c-879
1 -1402 -2 -1424 -8z"/>
</g>
</svg>
