<?xml version="1.0" standalone="no"?>
<!DOCTYPE svg PUBLIC "-//W3C//DTD SVG 20010904//EN"
 "http://www.w3.org/TR/2001/REC-SVG-20010904/DTD/svg10.dtd">
<svg version="1.0" xmlns="http://www.w3.org/2000/svg"
 width="512.000000pt" height="512.000000pt" viewBox="0 0 512.000000 512.000000"
 preserveAspectRatio="xMidYMid meet">

<g transform="translate(0.000000,512.000000) scale(0.100000,-0.100000)"
fill="#000000" stroke="none">
<path d="M2543 5106 c-213 -41 -405 -152 -533 -308 -64 -79 -142 -236 -172
-348 -32 -124 -33 -351 0 -463 63 -220 189 -393 373 -516 347 -232 809 -196
1111 88 127 119 199 233 253 401 38 119 46 303 17 440 -73 354 -306 601 -651
692 -99 26 -299 33 -398 14z m275 -583 l107 107 103 -103 c56 -56 102 -107
102 -112 0 -5 -46 -56 -102 -112 l-103 -103 105 -105 105 -105 -105 -105 -105
-105 -100 100 c-55 55 -105 100 -110 100 -5 0 -56 -46 -112 -102 l-103 -103
-107 108 -108 107 103 103 c56 56 102 107 102 112 0 5 -46 56 -102 112 l-103
103 105 105 105 105 107 -107 108 -108 108 108z"/>
<path d="M450 3465 l0 -755 -150 0 -150 0 0 -150 0 -150 450 0 450 0 0 150 0
149 -147 3 -148 3 -3 603 -2 602 396 0 397 0 -7 33 c-18 83 -26 147 -26 205
l0 62 -530 0 -530 0 0 -755z"/>
<path d="M3916 4198 c-3 -13 -6 -44 -6 -70 0 -25 -7 -82 -15 -125 -8 -43 -15
-79 -15 -80 0 -2 178 -3 395 -3 l395 0 -2 -1657 -3 -1658 -231 -3 -230 -2 9
-74 c5 -44 5 -102 0 -145 -5 -39 -7 -73 -5 -76 3 -3 176 -5 384 -5 l378 0 0
1960 0 1960 -524 0 -524 0 -6 -22z"/>
<path d="M150 1960 l0 -150 150 0 150 0 0 -755 0 -755 328 0 327 0 0 150 0
150 -175 2 -175 3 -3 603 -2 602 150 0 150 0 0 150 0 150 -450 0 -450 0 0
-150z"/>
<path d="M2271 1086 l-223 -224 -57 20 c-78 28 -205 27 -286 -1 -317 -111
-407 -510 -169 -748 97 -97 248 -147 379 -125 239 39 398 237 383 474 -3 46
-14 103 -23 126 l-18 44 227 227 226 226 -103 103 c-56 56 -105 102 -107 102
-3 0 -106 -101 -229 -224z"/>
<path d="M3395 899 c-135 -19 -279 -126 -338 -252 -98 -205 -27 -449 167 -571
73 -46 131 -67 207 -73 276 -23 525 245 481 515 -42 249 -268 415 -517 381z"/>
</g>
</svg>
