<?xml version="1.0" standalone="no"?>
<!DOCTYPE svg PUBLIC "-//W3C//DTD SVG 20010904//EN"
 "http://www.w3.org/TR/2001/REC-SVG-20010904/DTD/svg10.dtd">
<svg version="1.0" xmlns="http://www.w3.org/2000/svg"
 width="512.000000pt" height="512.000000pt" viewBox="0 0 512.000000 512.000000"
 preserveAspectRatio="xMidYMid meet">

<g transform="translate(0.000000,512.000000) scale(0.100000,-0.100000)"
fill="#000000" stroke="none">
<path d="M2480 3219 c-215 -24 -417 -167 -514 -362 -35 -72 -66 -177 -66 -229
l0 -28 -572 0 c-315 0 -583 -3 -595 -6 -24 -7 -35 -27 -27 -49 5 -13 81 -15
595 -15 463 0 590 -3 593 -12 2 -7 10 -50 19 -96 25 -130 75 -220 182 -327
139 -140 271 -195 465 -195 180 0 319 54 445 172 118 110 183 229 208 377 l13
76 591 3 c513 2 592 4 597 17 8 22 -3 42 -27 49 -12 3 -279 6 -592 6 l-570 0
-12 74 c-55 343 -381 586 -733 545z m274 -97 c174 -64 309 -200 368 -370 33
-96 33 -287 0 -383 -58 -169 -201 -313 -370 -371 -57 -19 -87 -23 -197 -23
-110 0 -139 4 -189 22 -174 66 -306 198 -368 369 -27 74 -36 241 -18 323 47
211 214 385 429 447 73 21 272 13 345 -14z"/>
<path d="M2296 2706 c-54 -20 -90 -58 -121 -128 -36 -80 -44 -135 -20 -144 28
-11 46 8 65 69 24 76 61 123 109 138 55 16 107 -10 218 -114 126 -117 172
-139 255 -117 65 18 107 55 140 126 39 83 47 141 23 150 -28 11 -45 -7 -67
-71 -26 -80 -59 -122 -107 -136 -55 -16 -105 10 -218 115 -51 47 -106 92 -123
101 -44 23 -109 27 -154 11z"/>
</g>
</svg>
