<?xml version="1.0" standalone="no"?>
<!DOCTYPE svg PUBLIC "-//W3C//DTD SVG 20010904//EN"
 "http://www.w3.org/TR/2001/REC-SVG-20010904/DTD/svg10.dtd">
<svg version="1.0" xmlns="http://www.w3.org/2000/svg"
 width="500.000000pt" height="1000.000000pt" viewBox="0 0 826.000000 826.000000"
 preserveAspectRatio="xMidYMid meet">

<g transform="translate(0.000000,826.000000) scale(0.100000,-0.100000)"
fill="#ffffff" stroke="none">
<path d="M3180 5750 l0 -200 315 0 315 0 0 200 0 200 -315 0 -315 0 0 -200z"/>
<path d="M4450 5750 l0 -200 315 0 315 0 0 200 0 200 -315 0 -315 0 0 -200z"/>
<path d="M2797 5473 c-4 -3 -7 -352 -7 -775 l0 -768 1340 0 1340 0 0 769 c0
692 -2 769 -16 775 -22 8 -2649 8 -2657 -1z"/>
<path d="M1790 4130 l0 -200 315 0 315 0 0 200 0 200 -315 0 -315 0 0 -200z"/>
<path d="M5840 4130 l0 -200 315 0 315 0 0 200 0 200 -315 0 -315 0 0 -200z"/>
<path d="M1406 3852 c-3 -3 -6 -351 -6 -774 l0 -768 1340 0 1340 0 -2 773 -3
772 -1332 2 c-732 1 -1334 -1 -1337 -5z"/>
<path d="M4187 3853 c-4 -3 -7 -352 -7 -775 l0 -768 1340 0 1340 0 -2 773 -3
772 -1331 3 c-732 1 -1334 -1 -1337 -5z"/>
</g>
</svg>
