<?xml version="1.0" standalone="no"?>
<!DOCTYPE svg PUBLIC "-//W3C//DTD SVG 20010904//EN"
 "http://www.w3.org/TR/2001/REC-SVG-20010904/DTD/svg10.dtd">
<svg version="1.0" xmlns="http://www.w3.org/2000/svg"
 width="10.000000pt" height="50.000000pt" viewBox="0 0 3000.000000 2389.000000"
 preserveAspectRatio="xMidYMid meet">

<g transform="translate(0.000000,2389.000000) scale(0.100000,-0.100000)"
fill="#ffffff" stroke="none">
<path d="M24380 23820 c0 -5 -6 -10 -13 -10 -8 0 -22 -9 -32 -20 -17 -19 -18
-125 -26 -2362 -4 -1289 -8 -3743 -8 -5455 -1 -1906 -5 -3114 -10 -3118 -8 -4
-64 23 -131 65 -8 5 -32 18 -53 30 -21 11 -95 52 -165 91 -122 69 -166 93
-287 159 -30 16 -73 41 -96 55 -22 14 -50 30 -62 36 -12 5 -40 20 -62 32 -22
13 -70 40 -107 60 -37 20 -88 50 -115 65 -26 16 -55 31 -63 35 -8 4 -33 18
-55 30 -60 35 -211 119 -290 162 -38 21 -74 41 -80 45 -5 4 -41 25 -80 45 -38
21 -88 49 -110 62 -22 12 -47 26 -55 30 -8 4 -37 19 -63 35 -27 15 -78 45
-115 65 -37 20 -85 47 -107 59 -22 12 -58 32 -80 44 -120 66 -155 86 -206 116
-31 19 -59 34 -63 34 -3 0 -40 20 -82 45 -41 25 -77 45 -79 45 -2 0 -52 28
-112 63 -59 35 -128 73 -153 86 -25 12 -52 26 -60 31 -29 18 -192 110 -195
110 -2 0 -38 20 -79 45 -42 25 -79 45 -81 45 -2 0 -42 22 -89 50 -47 27 -87
50 -90 50 -3 0 -40 20 -82 45 -41 25 -77 45 -79 45 -2 0 -27 14 -55 30 -29 17
-85 49 -127 71 -41 22 -89 49 -106 59 -18 10 -49 28 -70 39 -21 12 -95 53
-165 92 -70 40 -146 82 -169 95 -24 13 -64 36 -90 50 -27 15 -73 40 -103 57
-30 16 -59 33 -65 37 -5 4 -39 23 -75 43 -36 19 -113 62 -172 95 -59 32 -113
62 -120 66 -7 3 -31 17 -53 29 -39 23 -173 98 -284 159 -29 17 -76 43 -103 59
-27 16 -51 29 -53 29 -2 0 -42 23 -90 50 -48 28 -88 50 -91 50 -2 0 -38 20
-80 45 -41 25 -77 45 -79 45 -2 0 -26 13 -52 28 -45 27 -87 50 -250 139 -38
20 -84 46 -103 58 -19 12 -65 38 -102 58 -38 20 -98 54 -135 74 -38 20 -85 47
-106 60 -21 13 -48 28 -60 33 -12 6 -29 14 -37 20 -31 20 -172 100 -176 100
-3 0 -43 23 -90 50 -47 28 -87 50 -89 50 -2 0 -39 20 -81 45 -41 25 -78 45
-81 45 -3 0 -31 15 -62 34 -31 18 -87 51 -126 72 -38 20 -83 46 -100 55 -16
10 -43 25 -60 33 -16 9 -57 31 -90 50 -33 19 -80 46 -105 59 -25 14 -61 34
-80 46 -19 11 -45 25 -57 30 -12 6 -39 21 -60 34 -21 13 -68 40 -105 60 -176
96 -208 113 -276 154 -41 24 -75 43 -77 43 -2 0 -27 14 -55 30 -28 17 -79 45
-113 64 -34 19 -95 52 -135 74 l-73 41 -9 -23 c-5 -13 -9 -417 -10 -897 0
-481 -5 -1360 -10 -1954 -5 -594 -10 -1097 -10 -1117 0 -25 -5 -38 -13 -38 -7
0 -58 22 -113 49 -54 27 -137 67 -184 89 -47 22 -143 68 -215 102 -71 34 -164
78 -205 97 -41 19 -124 59 -185 88 -60 29 -146 70 -190 90 -44 20 -136 64
-205 97 -238 115 -346 166 -480 231 -74 35 -191 92 -260 125 -69 33 -179 86
-245 117 -66 31 -181 86 -255 122 -163 79 -324 155 -445 213 -49 24 -166 80
-260 125 -93 45 -218 105 -277 134 -60 28 -156 74 -215 102 -60 29 -187 90
-283 136 -96 47 -213 103 -260 125 -47 22 -141 68 -210 101 -69 33 -195 93
-280 135 -85 41 -186 89 -225 107 -38 18 -137 65 -220 105 -82 39 -193 92
-245 117 -52 25 -162 78 -245 118 -139 67 -239 115 -485 232 -52 25 -178 86
-280 135 -102 50 -230 111 -285 138 -207 99 -334 160 -465 223 -74 35 -189 90
-255 122 -66 31 -169 81 -230 110 -60 29 -150 72 -200 95 -49 24 -155 74 -235
112 -80 39 -179 86 -220 105 -102 48 -298 141 -336 160 -17 9 -39 13 -49 9
-16 -6 -17 -24 -11 -244 7 -288 23 -990 37 -1672 6 -278 14 -696 19 -930 12
-557 12 -997 1 -1004 -7 -5 -164 84 -361 204 -8 5 -51 31 -95 56 -44 26 -87
53 -95 60 -8 6 -31 20 -50 31 -36 19 -780 464 -828 495 -15 10 -34 21 -42 24
-8 4 -22 13 -30 19 -8 7 -37 25 -65 40 -27 16 -59 33 -70 39 -11 6 -38 23 -60
37 -22 14 -47 29 -55 33 -17 8 -37 20 -95 57 -22 14 -44 28 -50 30 -5 2 -192
113 -415 247 -223 134 -414 249 -425 255 -11 7 -39 24 -62 40 -23 15 -44 27
-47 27 -3 0 -29 15 -59 33 -29 17 -61 37 -72 44 -17 10 -656 394 -710 426 -11
7 -39 24 -63 40 -24 15 -45 27 -48 27 -3 0 -54 29 -112 66 -59 36 -114 69
-122 74 -8 5 -215 128 -460 275 -245 146 -454 272 -465 278 -11 7 -39 24 -63
40 -24 15 -46 27 -50 27 -4 0 -31 16 -61 35 -29 19 -55 35 -57 35 -2 0 -23 12
-47 27 -59 39 -80 51 -97 59 -8 4 -34 20 -57 36 -23 15 -44 28 -46 28 -3 0
-54 29 -113 65 -60 36 -116 70 -124 75 -111 66 -272 162 -297 177 -28 16 -584
349 -623 373 -121 75 -219 130 -230 130 -7 0 -10 -3184 -10 -8968 l0 -8969 64
-11 c35 -7 121 -17 192 -22 71 -6 152 -12 179 -15 131 -15 1126 -36 2105 -46
638 -6 1086 -14 1088 -20 2 -5 5189 -9 13164 -9 11391 0 13161 2 13174 14 8 8
14 19 14 25 0 6 5 11 10 11 7 0 10 2040 10 6099 l0 6098 -67 7 c-38 3 -171 10
-298 16 -126 5 -356 17 -510 25 -154 8 -415 22 -580 30 -165 9 -367 21 -450
26 -82 5 -244 14 -360 19 -115 5 -273 14 -350 20 -77 5 -216 14 -310 20 -145
9 -234 18 -235 24 -10 50 -29 1356 -40 2821 -14 1814 -29 3534 -40 4850 -6
655 -15 1751 -20 2437 -8 969 -13 1252 -22 1268 -13 20 -22 20 -1175 20 -769
0 -1163 -3 -1163 -10z m-7116 -12358 c6 -11 -39 -105 -59 -122 -9 -7 -15 -29
-15 -55 0 -27 -7 -51 -20 -68 -12 -15 -20 -40 -20 -62 0 -25 -8 -47 -26 -68
-19 -23 -25 -38 -21 -61 3 -23 -2 -39 -19 -59 -17 -20 -24 -41 -24 -71 0 -30
-6 -48 -20 -61 -14 -13 -20 -31 -20 -60 0 -29 -6 -47 -20 -60 -14 -13 -20 -31
-20 -60 0 -27 -7 -51 -20 -68 -11 -14 -20 -40 -20 -60 0 -23 -9 -46 -25 -65
-19 -22 -25 -41 -25 -75 0 -25 -5 -49 -11 -53 -6 -3 -19 -25 -29 -49 -10 -24
-23 -46 -29 -49 -6 -4 -11 -26 -11 -48 0 -29 -7 -49 -21 -64 -15 -16 -22 -38
-24 -67 -1 -28 -9 -54 -23 -71 -15 -19 -19 -36 -16 -55 4 -20 -1 -35 -20 -58
-18 -21 -26 -43 -26 -68 0 -22 -8 -47 -20 -62 -12 -15 -20 -41 -20 -63 0 -22
-8 -48 -20 -63 -12 -15 -20 -40 -20 -63 0 -25 -7 -46 -22 -61 -15 -16 -22 -35
-21 -59 1 -23 -8 -49 -24 -72 -17 -26 -23 -45 -19 -64 3 -17 -1 -35 -12 -50
-34 -45 -72 -130 -72 -162 0 -20 -8 -40 -20 -51 -14 -13 -20 -31 -20 -63 0
-33 -6 -52 -21 -68 -13 -14 -21 -36 -22 -61 0 -23 -8 -47 -20 -60 -13 -15 -21
-39 -22 -68 -2 -31 -9 -53 -24 -69 -14 -15 -21 -35 -21 -63 0 -27 -6 -46 -20
-58 -14 -13 -20 -31 -20 -62 0 -31 -6 -48 -20 -60 -14 -12 -20 -30 -20 -59 0
-27 -7 -51 -22 -69 -15 -19 -21 -40 -20 -65 2 -27 -4 -43 -23 -64 -19 -20 -25
-38 -25 -70 0 -30 -6 -48 -20 -61 -14 -13 -20 -31 -20 -60 0 -25 -6 -48 -14
-55 -8 -6 -20 -28 -27 -48 -7 -20 -18 -43 -26 -50 -7 -7 -13 -31 -13 -52 0
-26 -8 -48 -25 -68 -30 -35 -30 -40 -8 -64 15 -17 68 -18 1268 -18 960 0 1254
-3 1263 -12 24 -24 12 -59 -38 -112 -27 -29 -56 -68 -64 -87 -8 -19 -54 -72
-101 -119 -49 -48 -95 -103 -105 -126 -10 -22 -48 -69 -85 -105 -39 -37 -75
-82 -86 -107 -12 -27 -55 -79 -114 -137 -59 -59 -95 -102 -95 -115 0 -12 -34
-56 -85 -109 -47 -48 -85 -96 -85 -106 0 -10 -47 -66 -105 -125 -61 -62 -105
-114 -105 -126 0 -11 -43 -62 -105 -124 -62 -62 -105 -113 -105 -124 0 -11
-37 -58 -85 -107 -54 -55 -85 -94 -85 -108 0 -15 -36 -58 -105 -127 -68 -68
-105 -113 -105 -126 0 -14 -32 -55 -85 -109 -47 -47 -85 -95 -85 -105 0 -10
-47 -66 -105 -124 -58 -59 -105 -115 -105 -125 0 -9 -47 -66 -105 -125 -58
-59 -105 -116 -105 -125 0 -10 -35 -54 -78 -99 -43 -44 -85 -97 -93 -116 -7
-19 -53 -75 -101 -123 -49 -49 -95 -105 -103 -124 -8 -19 -49 -70 -90 -112
-41 -43 -75 -86 -75 -96 0 -10 -47 -66 -105 -125 -61 -62 -105 -114 -105 -126
0 -11 -43 -62 -105 -124 -60 -60 -105 -113 -105 -124 0 -10 -38 -59 -85 -107
-51 -53 -85 -97 -85 -109 0 -13 -40 -61 -105 -127 -58 -59 -108 -119 -112
-133 -3 -14 -40 -61 -83 -105 -43 -44 -81 -91 -85 -105 -4 -14 -51 -70 -105
-125 -53 -55 -101 -111 -105 -125 -4 -14 -51 -70 -105 -125 -53 -55 -101 -111
-105 -125 -4 -14 -42 -61 -85 -105 -50 -52 -80 -91 -84 -112 -8 -34 -89 -117
-108 -111 -30 10 -32 36 -5 68 16 19 27 44 27 61 0 17 11 50 25 73 14 25 23
50 19 60 -3 9 5 35 19 59 14 24 25 57 25 74 -1 18 8 43 21 58 12 16 21 42 21
62 0 20 9 46 20 60 12 15 20 41 20 63 0 23 8 48 21 64 12 15 22 44 23 66 1 22
10 48 21 60 11 12 19 38 20 64 1 28 10 54 24 71 11 15 21 33 21 40 0 7 9 24
20 38 12 15 20 40 20 62 0 22 8 47 20 62 12 15 20 41 20 63 0 23 8 48 21 65
12 15 23 44 25 66 1 21 12 51 23 65 13 16 21 41 21 64 0 23 8 46 20 60 13 15
20 37 20 65 0 29 6 47 20 60 14 13 20 31 20 60 0 29 6 47 20 60 14 13 20 31
20 61 0 31 7 51 25 72 17 20 25 42 25 67 0 22 8 47 20 62 11 14 20 33 20 43 0
9 9 25 20 35 14 13 20 31 20 60 0 28 7 52 22 70 14 18 21 40 20 60 -2 20 6 42
20 60 14 18 23 44 23 71 1 26 10 52 23 69 13 16 21 40 20 60 -1 20 7 43 20 60
13 16 22 42 22 62 0 20 9 46 20 60 12 15 20 41 20 63 0 23 8 48 21 65 13 16
22 40 21 58 -1 19 9 47 25 69 16 24 23 45 20 59 -5 20 47 135 74 164 5 5 9 28
9 50 0 29 6 47 20 60 13 12 20 31 20 57 0 24 8 50 21 67 12 16 22 46 23 68 1
23 11 51 24 68 13 16 22 42 22 62 0 20 9 46 20 60 12 15 20 41 20 63 0 21 7
43 15 50 23 19 19 50 -7 50 -13 0 -580 0 -1262 0 -909 0 -1242 3 -1252 11 -29
24 -15 59 46 123 33 35 60 71 60 81 0 10 47 66 105 125 58 58 105 114 105 123
0 10 38 58 85 108 47 49 85 98 85 108 0 10 41 58 91 107 61 59 99 106 114 139
14 30 50 75 90 114 36 35 72 80 81 100 8 20 57 79 108 131 51 52 98 109 105
126 7 16 54 73 106 124 54 53 95 103 95 114 0 10 38 57 84 105 46 47 86 98 90
113 4 16 46 66 105 124 71 68 101 105 105 127 4 22 31 56 86 110 50 49 80 85
80 99 0 13 38 60 105 128 58 59 108 117 110 130 2 13 52 71 110 130 60 61 105
115 105 126 0 11 32 51 71 89 39 39 79 87 88 107 10 20 61 82 114 137 54 57
99 113 103 128 4 16 38 60 77 98 39 39 78 88 88 110 10 22 57 78 105 125 47
47 95 103 105 125 10 22 57 78 104 125 48 47 93 101 101 120 8 19 48 69 88
110 41 41 76 87 80 101 3 14 53 72 111 131 70 70 105 113 105 127 0 15 30 54
85 111 47 49 85 96 85 104 0 9 47 66 105 126 58 59 105 117 105 127 0 10 47
65 105 123 62 62 105 113 105 124 0 11 37 58 85 107 57 58 85 94 85 110 0 33
48 79 81 79 15 0 30 -4 33 -8z"/>
</g>
</svg>
