<svg xmlns="http://www.w3.org/2000/svg" xmlns:xlink="http://www.w3.org/1999/xlink" viewBox="0 0 485.32 594.84" version="1.2"><g stroke-linejoin="bevel" stroke="#000" stroke-linecap="square" fill="none"><g font-size="11" font-weight="400"><path d="M94.133 82.53v28.415h28.416V82.53H94.133" fill-rule="evenodd" fill="#fff" stroke-width="1.184"/><path d="M105.973 103.841l4.736-4.735M114.261 97.921l4.736-4.736M105.973 99.105l4.736 4.736M114.261 93.185l4.736 4.736M97.685 97.921l4.736-4.736M104.789 101.474h7.104M113.077 95.553h7.104M97.685 93.185l4.736 4.736M108.341 97.921v7.104M116.629 92.001v7.104M96.501 95.553h7.104M100.053 92.001v7.104" stroke-miterlimit="2" stroke-linejoin="miter" stroke-width="1.184"/></g><g font-size="11" font-weight="400"><path d="M94.133 125.422v28.416h28.416v-28.416H94.133" fill-rule="evenodd" fill="#fff" stroke-width="1.184"/><path d="M104.981 145.55a3.744 3.744 0 11-7.488 0 3.744 3.744 0 017.488 0M119.189 145.55a3.744 3.744 0 11-7.488 0 3.744 3.744 0 017.488 0M104.981 133.71a3.744 3.744 0 11-7.488 0 3.744 3.744 0 017.488 0M119.189 133.71a3.744 3.744 0 11-7.488 0 3.744 3.744 0 017.488 0" fill-rule="evenodd" fill="#000" stroke-width="1.184"/></g><g font-size="11" font-weight="400"><path d="M178.462 125.422v28.416h28.416v-28.416h-28.416" fill-rule="evenodd" fill="#fff" stroke-width="1.184"/><path d="M196.414 145.55a3.744 3.744 0 11-7.488 0 3.744 3.744 0 017.488 0" fill-rule="evenodd" fill="#000" stroke-width="1.184"/><path d="M178.462 125.422h28.416v7.104h-28.416v-7.104" stroke-miterlimit="2" stroke-linejoin="miter" stroke-width="1.184"/></g><g font-size="11" font-weight="400"><path d="M431.452 125.421v28.416h28.416v-28.416h-28.416" fill-rule="evenodd" fill="#fff" stroke-width="1.184"/><path d="M439.74 132.65l11.84 5.92" stroke-miterlimit="2" stroke-linejoin="miter" stroke-width="1.184"/><path d="M455.132 135.61a2.96 2.96 0 01-2.96 2.96" stroke-width="1.184"/><path d="M439.74 142.122l11.84 5.92M439.74 137.386l11.84 5.92" stroke-miterlimit="2" stroke-linejoin="miter" stroke-width="1.184"/><path d="M436.188 135.61a2.96 2.96 0 012.96-2.96M455.132 144.956a2.96 2.96 0 01-2.96 2.96M455.132 140.346a2.96 2.96 0 01-2.96 2.96M436.188 144.956a2.96 2.96 0 012.96-2.96M436.188 140.346a2.96 2.96 0 012.96-2.96" stroke-width="1.184"/></g><g font-size="11" font-weight="400"><path d="M9.807 168.31v28.416h28.416V168.31H9.807" fill-rule="evenodd" fill="#fff" stroke-width="1.184"/><path vector-effect="non-scaling-stroke" d="M21.278 186.991l7.104-7.105M19.49 184.938l7.104-7.103" stroke-miterlimit="2" stroke-linejoin="miter"/><path d="M34.671 182.518c0 5.885-4.77 10.656-10.656 10.656s-10.656-4.77-10.656-10.656 4.77-10.656 10.656-10.656 10.656 4.77 10.656 10.656" stroke-width="1.184"/><path vector-effect="non-scaling-stroke" d="M18.963 183.386l5.92-5.92" stroke-miterlimit="2" stroke-linejoin="miter"/><path vector-effect="non-scaling-stroke" d="M29.31 182.518a5.295 5.295 0 11-10.59 0 5.295 5.295 0 0110.59 0"/><path vector-effect="non-scaling-stroke" d="M19.279 181.334l3.552-3.552M25.199 187.254l3.552-3.552M22.831 187.306l5.92-5.92M20.463 186.07l7.104-7.104" stroke-miterlimit="2" stroke-linejoin="miter"/></g><g font-size="11" font-weight="400"><path d="M178.462 168.31v28.416h28.416V168.31h-28.416" fill-rule="evenodd" fill="#fff" stroke-width="1.184"/><path d="M206.878 168.31l-28.416 28.416M178.462 168.31l28.416 28.416" stroke-miterlimit="2" stroke-linejoin="miter" stroke-width="1.184"/><path d="M203.326 182.518c0 5.885-4.77 10.656-10.656 10.656s-10.656-4.77-10.656-10.656 4.77-10.656 10.656-10.656 10.656 4.77 10.656 10.656" fill-rule="evenodd" fill="#fff" stroke-width="1.184"/><path vector-effect="non-scaling-stroke" d="M189.933 186.991l7.104-7.105M188.145 184.938l7.104-7.103M187.618 183.386l5.92-5.92" stroke-miterlimit="2" stroke-linejoin="miter"/><path vector-effect="non-scaling-stroke" d="M197.965 182.518a5.295 5.295 0 11-10.59 0 5.295 5.295 0 0110.59 0"/><path vector-effect="non-scaling-stroke" d="M187.934 181.334l3.552-3.552M193.854 187.254l3.552-3.552M191.486 187.306l5.92-5.92M189.118 186.07l7.104-7.104" stroke-miterlimit="2" stroke-linejoin="miter"/></g><g font-size="11" font-weight="400"><path d="M178.462 82.53v28.415h28.416V82.53h-28.416" fill-rule="evenodd" fill="#fff" stroke-width="1.184"/><path d="M190.302 99.105l4.736-4.736M190.302 94.37l4.736 4.735M189.118 96.737h7.104M192.67 93.185v7.104" stroke-miterlimit="2" stroke-linejoin="miter" stroke-width="1.184"/></g><g font-size="11" font-weight="400"><path d="M262.792 82.53v28.415h28.416V82.53h-28.416" fill-rule="evenodd" fill="#fff" stroke-width="1.184"/><path d="M284.104 88.45l2.368-2.369M262.792 82.53h28.416V92h-28.416V82.53M284.104 86.081l2.368 2.368M282.92 87.266h4.736M267.528 88.45l2.368-2.369M285.288 84.897v4.736M267.528 86.081l2.368 2.368M266.344 87.266h4.736M268.712 84.897v4.736M275.816 88.45l2.368-2.369M274.632 105.025l4.736-4.736M275.816 86.081l2.368 2.368M274.632 100.29l4.736 4.735M274.562 87.266h4.736M273.448 102.657h7.104M277 84.897v4.736M277 99.105v7.104" stroke-miterlimit="2" stroke-linejoin="miter" stroke-width="1.184"/></g><g font-size="11" font-weight="400"><path d="M347.122 125.422v28.416h28.416v-28.416h-28.416" fill-rule="evenodd" fill="#fff" stroke-width="1.184"/><path vector-effect="non-scaling-stroke" d="M359.554 145.55a4.144 4.144 0 11-8.288 0 4.144 4.144 0 018.288 0M372.578 145.55a5.328 5.328 0 11-10.656 0 5.328 5.328 0 0110.656 0M360.738 133.71a5.328 5.328 0 11-10.656 0 5.328 5.328 0 0110.656 0M371.394 133.71a4.144 4.144 0 11-8.288 0 4.144 4.144 0 018.288 0"/></g><g font-size="11" font-weight="400"><path d="M94.135 168.31v28.416h28.416V168.31H94.135" fill-rule="evenodd" fill="#fff" stroke-width="1.184"/><path vector-effect="non-scaling-stroke" d="M117.815 184.886c0 5.231-4.24 9.472-9.472 9.472s-9.472-4.24-9.472-9.472 4.24-9.472 9.472-9.472 9.472 4.24 9.472 9.472"/><path vector-effect="non-scaling-stroke" d="M115.447 184.886a7.104 7.104 0 11-14.208 0 7.104 7.104 0 0114.208 0"/><path vector-effect="non-scaling-stroke" d="M94.135 173.046h28.416" stroke-miterlimit="2" stroke-linejoin="miter"/></g><g font-size="11" font-weight="400"><path d="M12.175 213.565h23.68v23.68h-23.68v-23.68" fill-rule="evenodd" stroke-miterlimit="2" stroke-linejoin="miter" fill="#fff" stroke-width="1.184"/><path d="M24.015 225.405c0 1.471-1.855 2.664-4.144 2.664s-4.144-1.193-4.144-2.664 1.855-2.664 4.144-2.664 4.144 1.193 4.144 2.664M32.303 225.405c0 1.471-1.855 2.664-4.144 2.664s-4.144-1.193-4.144-2.664 1.855-2.664 4.144-2.664 4.144 1.193 4.144 2.664" stroke-width="1.184"/></g><g font-size="11" stroke-miterlimit="2" font-weight="400" stroke-linejoin="miter"><path d="M406.588 40.233h78.144v27.232h-78.144V40.233" fill-rule="evenodd" fill="#fff" stroke-width="1.184"/><path d="M410.14 43.785h17.76v20.128h-17.76V43.785M463.42 43.785h17.76v20.128h-17.76V43.785M445.66 43.785h17.76v20.128h-17.76V43.785M427.9 43.785h17.76v20.128H427.9V43.785" stroke-width="1.184"/></g><g font-size="11" font-weight="400"><path d="M262.792 168.31v28.416h28.416V168.31h-28.416" fill-rule="evenodd" fill="#fff" stroke-width="1.184"/><path d="M270.49 177.29a2.368 2.368 0 110-4.735" stroke-width="1.184"/><path d="M282.892 172.524l-11.84 4.736M271.052 172.524l11.84 4.736" stroke-miterlimit="2" stroke-linejoin="miter" stroke-width="1.184"/><path vector-effect="non-scaling-stroke" d="M279.96 188.438a2.96 2.96 0 11-5.92 0 2.96 2.96 0 015.92 0" fill-rule="evenodd" fill="#000"/><path d="M283.584 172.555a2.368 2.368 0 110 4.736" stroke-width="1.184"/></g><g font-size="11" font-weight="400"><path d="M347.122 168.31v28.416h28.416V168.31h-28.416" fill-rule="evenodd" fill="#fff" stroke-width="1.184"/><path d="M361.33 196.726v-7.104M368.434 183.702v-7.104M354.226 183.702v-7.104M347.122 168.31h28.416v8.288h-28.416v-8.288" stroke-miterlimit="2" stroke-linejoin="miter" stroke-width="1.184"/><path d="M354.82 174.923a2.368 2.368 0 110-4.736" stroke-width="1.184"/><path d="M367.222 170.156l-11.84 4.736M355.382 170.156l11.84 4.736" stroke-miterlimit="2" stroke-linejoin="miter" stroke-width="1.184"/><path d="M367.914 170.187a2.368 2.368 0 110 4.736" stroke-width="1.184"/></g><g font-size="11" font-weight="400"><path d="M347.122 82.53v28.415h28.416V82.53h-28.416" fill-rule="evenodd" fill="#fff" stroke-width="1.184"/><text font-size="9" y="12" font-family="Sans Serif" fill="#000" transform="translate(356.6 86.477) scale(1.184)">E</text></g><g font-size="11" font-weight="400"><path d="M105.973 274.802l-8.288 11.84-3.552-2.368M110.709 274.802l8.288 11.84 3.552-2.368M105.973 262.962l-8.288-13.024-3.552 2.368M110.709 262.962l8.288-13.024 3.552 2.368" stroke-width="1.184"/><path d="M114.261 268.882a5.92 5.92 0 11-11.84 0 5.92 5.92 0 0111.84 0" fill="#fff" stroke-width="1.184"/></g><g font-size="11" font-weight="400"><path d="M190.302 268.882l-8.288-13.024-3.552 2.368M195.038 268.882l8.288-13.024 3.552 2.368" stroke-width="1.184"/><path d="M198.59 274.802a5.92 5.92 0 11-11.84 0 5.92 5.92 0 0111.84 0" fill="#fff" stroke-width="1.184"/></g><g font-size="11" stroke-miterlimit="2" font-weight="400" stroke-linejoin="miter"><path d="M10.741 462.762h23.68M42.745 454.438l-16.648 16.648M26.097 454.438l16.648 16.648" stroke-width="1.184"/></g><g font-size="11" stroke-miterlimit="2" font-weight="400" stroke-linejoin="miter"><path d="M69.285 462.762h23.68M101.253 449.738v26.048M101.289 454.438L84.64 471.086M84.641 454.438l16.648 16.648" stroke-width="1.184"/></g><g font-size="11" font-weight="400"><path d="M276.998 268.882l8.288-13.024" stroke-miterlimit="2" stroke-linejoin="miter" stroke-width="1.184"/><path d="M280.55 274.802a5.92 5.92 0 11-11.84 0 5.92 5.92 0 0111.84 0" fill="#fff" stroke-width="1.184"/></g><g font-size="11" font-weight="400"><path d="M364.88 274.802a5.92 5.92 0 11-11.84 0 5.92 5.92 0 0111.84 0" fill="#fff" stroke-width="1.184"/><path d="M355.408 278.354l7.104-7.104M362.512 278.354l-7.104-7.104M361.328 268.882l8.288-13.024" stroke-miterlimit="2" stroke-linejoin="miter" stroke-width="1.184"/></g><g font-size="11" font-weight="400"><path d="M28.158 302.301l3.552 2.368" stroke-miterlimit="2" stroke-linejoin="miter" stroke-width="1.184"/><path d="M22.238 311.773l8.288-13.024 3.552 2.368" stroke-width="1.184"/><path d="M25.79 317.693a5.92 5.92 0 11-11.84 0 5.92 5.92 0 0111.84 0" fill="#fff" stroke-width="1.184"/></g><g font-size="11" font-weight="400"><path d="M192.67 310.589l7.104-10.656" stroke-miterlimit="2" stroke-linejoin="miter" stroke-width="1.184"/><path vector-effect="non-scaling-stroke" d="M190.302 307.037h10.656v-4.736l-10.656 4.736"/><path d="M196.222 316.509a5.92 5.92 0 11-11.84 0 5.92 5.92 0 0111.84 0" fill="#fff" stroke-width="1.184"/></g><g font-size="11" font-weight="400"><path d="M21.647 274.802l-8.288 11.84-3.552-2.368M26.383 262.962l8.288-13.024 3.552 2.368" stroke-width="1.184"/><path d="M29.935 268.882a5.92 5.92 0 11-11.84 0 5.92 5.92 0 0111.84 0" fill="#fff" stroke-width="1.184"/></g><g font-size="11" font-weight="400"><path d="M155.67 462.762c0 6.539-5.301 11.84-11.84 11.84s-11.84-5.301-11.84-11.84 5.301-11.84 11.84-11.84 11.84 5.301 11.84 11.84" fill="#fff" stroke-width="1.184"/><path d="M152.154 454.438l-16.648 16.648M135.506 454.438l16.648 16.648" stroke-miterlimit="2" stroke-linejoin="miter" stroke-width="1.184"/></g><g font-size="11" font-weight="400"><path d="M210.958 462.762a5.328 5.328 0 11-10.656 0 5.328 5.328 0 0110.656 0" fill="#fff" stroke-width="1.184"/><path d="M202.078 459.21l7.104 7.104M202.078 466.314l7.104-7.104" stroke-miterlimit="2" stroke-linejoin="miter" stroke-width="1.184"/><path d="M205.63 474.602c-6.539 0-11.84-5.301-11.84-11.84s5.301-11.84 11.84-11.84" stroke-width="1.184"/></g><g font-size="11" font-weight="400"><path d="M260.326 462.762a5.328 5.328 0 11-10.656 0 5.328 5.328 0 0110.656 0" fill="#fff" stroke-width="1.184"/><g stroke-miterlimit="2" stroke-linejoin="miter" fill="#000"><path d="M276.31 466.314v2.368l2.368-2.368-2.368-2.368v2.368" fill-rule="evenodd" stroke-width="1.184"/><path fill="none" d="M264.47 466.314h11.84" stroke-width="1.184"/></g><g stroke-miterlimit="2" stroke-linejoin="miter" fill="#000"><path d="M276.31 459.21v2.368l2.368-2.368-2.368-2.368v2.368" fill-rule="evenodd" stroke-width="1.184"/><path fill="none" d="M264.47 459.21h11.84" stroke-width="1.184"/></g><path d="M251.446 459.21l7.104 7.104M251.446 466.314l7.104-7.104" stroke-miterlimit="2" stroke-linejoin="miter" stroke-width="1.184"/><path d="M254.998 474.602c-6.539 0-11.84-5.301-11.84-11.84s5.301-11.84 11.84-11.84" stroke-width="1.184"/></g><g font-size="11" font-weight="400"><path d="M319.462 462.762a5.328 5.328 0 11-10.656 0 5.328 5.328 0 0110.656 0" fill="#fff" stroke-width="1.184"/><g stroke-miterlimit="2" stroke-linejoin="miter" fill="#000"><path d="M334.956 477.664l-1.674 1.674h3.348v-3.349l-1.674 1.675" fill-rule="evenodd" stroke-width="1.184"/><path fill="none" d="M334.956 477.664l-11.35-11.35" stroke-width="1.184"/></g><g stroke-miterlimit="2" stroke-linejoin="miter" fill="#000"><path d="M334.956 447.86l1.674 1.674v-3.348h-3.349l1.675 1.674" fill-rule="evenodd" stroke-width="1.184"/><path fill="none" d="M323.606 459.21l11.35-11.35" stroke-width="1.184"/></g><path d="M310.582 459.21l7.104 7.104M310.582 466.314l7.104-7.104" stroke-miterlimit="2" stroke-linejoin="miter" stroke-width="1.184"/><path d="M314.134 474.602c-6.539 0-11.84-5.301-11.84-11.84s5.301-11.84 11.84-11.84" stroke-width="1.184"/></g><g font-size="11" font-weight="400"><path d="M370.21 311.181a8.88 8.88 0 11-17.76 0 8.88 8.88 0 0117.76 0" fill="#fff" stroke-width="1.184"/><path d="M366.362 311.181a5.032 5.032 0 11-10.064 0 5.032 5.032 0 0110.064 0" stroke-width="1.184"/></g><g font-size="11" font-weight="400"><path d="M454.54 311.181a8.88 8.88 0 11-17.76 0 8.88 8.88 0 0117.76 0" fill="#fff" stroke-width="1.184"/><path d="M442.108 314.733l7.104-7.104M442.108 307.629l7.104 7.104" stroke-miterlimit="2" stroke-linejoin="miter" stroke-width="1.184"/><path d="M450.692 311.181a5.032 5.032 0 11-10.064 0 5.032 5.032 0 0110.064 0" stroke-width="1.184"/></g><g font-size="11" font-weight="400"><path d="M453.05 268.294a8.88 8.88 0 11-17.76 0 8.88 8.88 0 0117.76 0" fill="#fff" stroke-width="1.184"/><path d="M449.202 268.294a5.032 5.032 0 11-10.064 0 5.032 5.032 0 0110.064 0" stroke-width="1.184"/><path d="M450.09 280.134v5.92M450.09 256.454v-5.92M450.09 256.454h5.92M450.09 280.134h5.92M456.01 256.454v23.68" stroke-miterlimit="2" stroke-linejoin="miter" stroke-width="1.184"/></g><g font-size="11" stroke-miterlimit="2" font-weight="400" stroke-linejoin="miter"><path d="M169.58 513.469v7.104M240.62 513.469v7.104M169.58 517.021h71.04" stroke-width="1.184"/></g><g font-size="11" stroke-miterlimit="2" font-weight="400" stroke-linejoin="miter"><path d="M5.13 501.628v30.784M76.17 501.628v30.784M5.13 505.18h71.04M5.13 517.02h71.04M5.13 528.86h71.04" stroke-width="1.184"/></g><g font-size="11" font-weight="400"><path d="M283.788 521.842l7.104-7.104M251.82 514.738v7.104M322.86 514.738v7.104M251.82 518.29h71.04" stroke-miterlimit="2" stroke-linejoin="miter" stroke-width="1.184"/><text font-size="5" y="11" x="4" font-family="Sans Serif" fill="#000" transform="translate(287.34 502.9) scale(1.184)">5</text></g><g font-size="11" font-weight="400"><path d="M99.21 505.181h47.36v23.68H99.21v-23.68" stroke-miterlimit="2" stroke-linejoin="miter" fill="#fff" stroke-width="1.184"/><text font-size="9" y="12" font-family="Sans Serif" fill="#000" transform="translate(120.52 507.551) scale(1.184)">t</text></g><g font-size="11" font-weight="400"><path d="M9.802 39.641v28.416h28.416V39.641H9.802" fill-rule="evenodd" fill="#fff" stroke-width="1.184"/><path d="M21.642 62.137l4.736-4.736M21.642 57.401l4.736 4.736M20.458 59.769h7.104M24.01 56.217v7.104M9.802 39.641h7.104v7.104H9.802v-7.104M31.114 39.641h7.104v7.104h-7.104v-7.104M24.01 39.641h7.104v7.104H24.01v-7.104M16.906 39.641h7.104v7.104h-7.104v-7.104" stroke-miterlimit="2" stroke-linejoin="miter" stroke-width="1.184"/></g><g font-size="11" font-weight="400"><path d="M201.031 576.484h11.84l-11.84-11.84v11.84" fill="#fff" stroke-width="1.184"/><path d="M177.351 564.644h23.68v11.84h-23.68v-11.84" fill="#fff" stroke-miterlimit="2" stroke-linejoin="miter" stroke-width="1.184"/><path d="M183.271 571.748a2.96 2.96 0 015.92 0M189.191 571.748a2.96 2.96 0 015.92 0" stroke-width="1.184"/></g><g font-size="11" font-weight="400"><path d="M94.132 39.641v28.416h28.416V39.641H94.132" fill-rule="evenodd" fill="#fff" stroke-width="1.184"/><path d="M101.83 60.462a2.368 2.368 0 110-4.736" stroke-width="1.184"/><path d="M114.232 55.696l-11.84 4.736M102.392 55.696l11.84 4.736" stroke-miterlimit="2" stroke-linejoin="miter" stroke-width="1.184"/><path d="M114.924 55.726a2.368 2.368 0 110 4.736" stroke-width="1.184"/><path d="M94.132 39.641h7.104v7.104h-7.104v-7.104M115.444 39.641h7.104v7.104h-7.104v-7.104M108.34 39.641h7.104v7.104h-7.104v-7.104M101.236 39.641h7.104v7.104h-7.104v-7.104" stroke-miterlimit="2" stroke-linejoin="miter" stroke-width="1.184"/></g><path d="M431.452 82.528v28.416h28.416V82.528h-28.416" font-size="11" font-weight="400" fill="#fff" stroke-width="1.184"/><g font-size="11" font-weight="400"><path d="M9.807 82.53v28.415h28.416V82.53H9.807" fill="#fff" stroke-width="1.184"/><path d="M21.647 97.921l4.736-4.736M29.935 97.921l4.736-4.736M21.647 93.185l4.736 4.736M29.935 93.185l4.736 4.736M13.359 97.921l4.736-4.736M20.463 95.553h7.104M28.751 95.553h7.104M13.359 93.185l4.736 4.736M24.015 92.001v7.104M32.303 92.001v7.104M12.175 95.553h7.104M15.727 92.001v7.104" stroke-miterlimit="2" stroke-linejoin="miter" stroke-width="1.184"/></g><g font-size="11" font-weight="400"><path d="M9.807 125.422v28.416h28.416v-28.416H9.807" fill="#fff" stroke-width="1.184"/><path d="M20.655 145.55a3.744 3.744 0 11-7.488 0 3.744 3.744 0 017.488 0M34.863 145.55a3.744 3.744 0 11-7.488 0 3.744 3.744 0 017.488 0M34.863 133.71a3.744 3.744 0 11-7.488 0 3.744 3.744 0 017.488 0" fill-rule="evenodd" fill="#000" stroke-width="1.184"/></g><g font-size="11" stroke-miterlimit="2" font-weight="400" fill="#fff" stroke-linejoin="miter"><path d="M325.805 43.786h17.76v20.128h-17.76V43.786M379.085 43.786h17.76v20.128h-17.76V43.786M361.325 43.786h17.76v20.128h-17.76V43.786M343.565 43.786h17.76v20.128h-17.76V43.786" fill-rule="evenodd" stroke-width="1.184"/></g><g font-size="11" font-weight="400"><path d="M122.6 225.406c0 7.874-6.382 14.258-14.257 14.258-7.874 0-14.258-6.383-14.258-14.258 0-7.874 6.383-14.258 14.258-14.258 7.874 0 14.258 6.383 14.258 14.258" fill-rule="evenodd" fill="#fff" stroke-width="1.184"/><path d="M96.503 232.51h23.68M96.503 218.302h23.68M95.319 228.958h26.048M95.319 221.854h26.048M94.135 225.406h28.416" stroke-miterlimit="2" stroke-linejoin="miter" stroke-width="1.184"/></g><g font-size="11" font-weight="400"><path d="M178.462 216.525v17.76h28.416v-17.76h-28.416" fill-rule="evenodd" fill="#fff" stroke-width="1.184"/><path vector-effect="non-scaling-stroke" d="M178.462 221.853h28.416M178.462 220.077h28.416M178.462 218.301h28.416" stroke-miterlimit="2" stroke-linejoin="miter"/></g><g font-size="11" stroke-miterlimit="2" font-weight="400" stroke-linejoin="miter"><path d="M237.927 211.789h78.144v27.232h-78.144v-27.232" fill-rule="evenodd" fill="#fff" stroke-width="1.184"/><path d="M240.295 214.157h13.024v3.552h-13.024v-3.552M237.927 233.101h78.144v5.92h-78.144v-5.92" stroke-width="1.184"/><path d="M237.927 227.181h78.144v11.84h-78.144v-11.84" stroke-width="1.184"/></g><g font-size="11" font-weight="400"><path d="M25.266 549.844H56.05v41.44H25.266v-41.44" stroke-miterlimit="2" stroke-linejoin="miter" fill="#fff" stroke-width="1.184"/><path d="M38.29 572.34l-4.736 9.472h14.208l-4.736-9.472" stroke-width="1.184"/><path d="M46.578 566.42a5.92 5.92 0 11-11.84 0 5.92 5.92 0 0111.84 0" stroke-width="1.184"/></g><g font-size="11" font-weight="400"><path d="M98.937 546.885h37.888v47.36H98.937v-47.36" stroke-miterlimit="2" stroke-linejoin="miter" fill="#fff" stroke-width="1.184"/><text font-size="10" y="13" font-family="Sans Serif" fill="#000" transform="translate(101.311 567.015) scale(1.184)">kWh</text><path d="M98.937 558.725h37.888" stroke-miterlimit="2" stroke-linejoin="miter" stroke-width="1.184"/></g><g font-size="11" font-weight="400"><path d="M274.684 310.342l9.472-9.472 2.368 2.368" stroke-width="1.184"/><path d="M279.316 315.57a5.92 5.92 0 11-11.84 0 5.92 5.92 0 0111.84 0" fill="#fff" stroke-width="1.184"/></g><g font-size="11" font-weight="400"><path d="M110.888 305.438l2.368 2.368M113.256 303.07l2.368 2.368" stroke-miterlimit="2" stroke-linejoin="miter" stroke-width="1.184"/><path d="M106.152 310.174l9.472-9.472 2.368 2.368" stroke-width="1.184"/><path d="M110.534 315.742a5.92 5.92 0 11-11.84 0 5.92 5.92 0 0111.84 0" fill="#fff" stroke-width="1.184"/></g><g font-size="11" font-weight="400"><path d="M454.54 10.962a8.88 8.88 0 11-17.76 0 8.88 8.88 0 0117.76 0" fill="#fff" stroke-width="1.184"/><path d="M449.034 10.962a3.374 3.374 0 11-6.748 0 3.374 3.374 0 016.748 0" fill="#000" stroke-width=".79387"/></g><path d="M370.21 10.961a8.88 8.88 0 11-17.76 0 8.88 8.88 0 0117.76 0" font-size="11" font-weight="400" fill="#fff" stroke-width="1.184"/><g font-size="11" font-weight="400"><path d="M50.423 385.332h-11.84" stroke-miterlimit="2" stroke-linejoin="miter" stroke-width="1.184"/><path d="M14.903 384.74c0-6.539 5.301-11.84 11.84-11.84s11.84 5.301 11.84 11.84" stroke-width="1.184"/><path d="M26.743 371.124v-17.76M14.903 372.308h23.68M14.903 385.332H3.063M50.423 385.332h-11.84" stroke-miterlimit="2" stroke-linejoin="miter" stroke-width="1.184"/><path d="M14.903 384.74c0-6.539 5.301-11.84 11.84-11.84s11.84 5.301 11.84 11.84" stroke-width="1.184"/><path d="M26.743 371.124v-17.76M14.903 372.308h23.68M14.903 385.332H3.063" stroke-miterlimit="2" stroke-linejoin="miter" stroke-width="1.184"/></g><g font-size="11" font-weight="400"><path d="M73.446 369.352h23.68" stroke-miterlimit="2" stroke-linejoin="miter" stroke-width="1.184"/><path d="M73.446 381.192c0-6.539 5.301-11.84 11.84-11.84s11.84 5.301 11.84 11.84" stroke-width="1.184"/><path d="M85.286 369.352v-11.84M73.446 369.352h23.68" stroke-miterlimit="2" stroke-linejoin="miter" stroke-width="1.184"/><path d="M73.446 381.192c0-6.539 5.301-11.84 11.84-11.84s11.84 5.301 11.84 11.84" stroke-width="1.184"/><path d="M85.286 369.352v-11.84" stroke-miterlimit="2" stroke-linejoin="miter" stroke-width="1.184"/></g><g font-size="11" font-weight="400"><path d="M131.99 381.192c0-6.539 5.301-11.84 11.84-11.84s11.84 5.301 11.84 11.84" stroke-width="1.184"/><path d="M143.83 369.352v-11.84" stroke-miterlimit="2" stroke-linejoin="miter" stroke-width="1.184"/><path d="M131.99 381.192c0-6.539 5.301-11.84 11.84-11.84s11.84 5.301 11.84 11.84" stroke-width="1.184"/><path d="M143.83 369.352v-11.84" stroke-miterlimit="2" stroke-linejoin="miter" stroke-width="1.184"/></g><g font-size="11" font-weight="400"><path d="M204.576 372.904l5.92-7.104" stroke-miterlimit="2" stroke-linejoin="miter" stroke-width="1.184"/><path d="M190.368 381.192c0-6.539 5.301-11.84 11.84-11.84s11.84 5.301 11.84 11.84" stroke-width="1.184"/><path d="M202.208 369.352v-11.84" stroke-miterlimit="2" stroke-linejoin="miter" stroke-width="1.184"/><text font-size="5" y="11" x="4" font-family="Sans Serif" fill="#000" transform="translate(206.948 352.772) scale(1.184)">3</text><path d="M204.576 372.904l5.92-7.104" stroke-miterlimit="2" stroke-linejoin="miter" stroke-width="1.184"/><path d="M190.368 381.192c0-6.539 5.301-11.84 11.84-11.84s11.84 5.301 11.84 11.84" stroke-width="1.184"/><path d="M202.208 369.352v-11.84" stroke-miterlimit="2" stroke-linejoin="miter" stroke-width="1.184"/><text font-size="5" y="11" x="4" font-family="Sans Serif" fill="#000" transform="translate(206.948 352.772) scale(1.184)">3</text></g><g font-size="11" font-weight="400"><path d="M237.83 381.192h10.656M273.35 381.192h10.656" stroke-miterlimit="2" stroke-linejoin="miter" stroke-width="1.184"/><path d="M249.67 381.192c0-6.539 5.301-11.84 11.84-11.84s11.84 5.301 11.84 11.84" stroke-width="1.184"/><path d="M261.51 369.352v-11.84M237.83 381.192h10.656M273.35 381.192h10.656" stroke-miterlimit="2" stroke-linejoin="miter" stroke-width="1.184"/><path d="M249.67 381.192c0-6.539 5.301-11.84 11.84-11.84s11.84 5.301 11.84 11.84" stroke-width="1.184"/><path d="M261.51 369.352v-11.84" stroke-miterlimit="2" stroke-linejoin="miter" stroke-width="1.184"/></g><g font-size="11" font-weight="400"><path d="M331.302 375.272c0 6.539-5.301 11.84-11.84 11.84s-11.84-5.301-11.84-11.84 5.301-11.84 11.84-11.84 11.84 5.301 11.84 11.84" fill="#fff" stroke-width="1.184"/><path d="M307.622 387.112c0-6.539 5.301-11.84 11.84-11.84s11.84 5.301 11.84 11.84" stroke-width="1.184"/><path d="M319.462 363.432v-11.84" stroke-miterlimit="2" stroke-linejoin="miter" stroke-width="1.184"/><path d="M331.302 375.272c0 6.539-5.301 11.84-11.84 11.84s-11.84-5.301-11.84-11.84 5.301-11.84 11.84-11.84 11.84 5.301 11.84 11.84" fill="#fff" stroke-width="1.184"/><path d="M307.622 387.112c0-6.539 5.301-11.84 11.84-11.84s11.84 5.301 11.84 11.84" stroke-width="1.184"/><path d="M319.462 363.432v-11.84" stroke-miterlimit="2" stroke-linejoin="miter" stroke-width="1.184"/></g><g font-size="11" font-weight="400"><path d="M363.565 384.45c0-6.539 5.301-11.84 11.84-11.84s11.84 5.301 11.84 11.84" stroke-width="1.184"/><path d="M375.405 372.018v-17.76" stroke-miterlimit="2" stroke-linejoin="miter" stroke-width="1.184"/><text font-size="7" y="9" font-family="Sans Serif" fill="#000" transform="translate(388.435 361.362) scale(1.184)">3</text><path d="M387.245 372.018l-9.472 7.104" stroke-miterlimit="2" stroke-linejoin="miter" stroke-width="1.184"/><path d="M363.565 384.45c0-6.539 5.301-11.84 11.84-11.84s11.84 5.301 11.84 11.84" stroke-width="1.184"/><path d="M375.405 372.018v-17.76" stroke-miterlimit="2" stroke-linejoin="miter" stroke-width="1.184"/><text font-size="7" y="9" font-family="Sans Serif" fill="#000" transform="translate(388.435 361.362) scale(1.184)">3</text><path d="M387.245 372.018l-9.472 7.104" stroke-miterlimit="2" stroke-linejoin="miter" stroke-width="1.184"/></g><g font-size="11" font-weight="400"><path d="M204.635 419.604l5.92-7.104" stroke-miterlimit="2" stroke-linejoin="miter" stroke-width="1.184"/><path d="M190.427 427.892c0-6.539 5.301-11.84 11.84-11.84s11.84 5.301 11.84 11.84" stroke-width="1.184"/><path d="M202.267 416.052v-11.84" stroke-miterlimit="2" stroke-linejoin="miter" stroke-width="1.184"/><text font-size="5" y="11" x="4" font-family="Sans Serif" fill="#000" transform="translate(207.007 399.482) scale(1.184)">2</text><path d="M204.635 419.604l5.92-7.104" stroke-miterlimit="2" stroke-linejoin="miter" stroke-width="1.184"/><path d="M190.427 427.892c0-6.539 5.301-11.84 11.84-11.84s11.84 5.301 11.84 11.84" stroke-width="1.184"/><path d="M202.267 416.052v-11.84" stroke-miterlimit="2" stroke-linejoin="miter" stroke-width="1.184"/></g><g font-size="11" font-weight="400"><path d="M363.648 431.15c0-6.539 5.3-11.84 11.84-11.84s11.84 5.301 11.84 11.84" stroke-width="1.184"/><path d="M375.488 418.718v-17.76" stroke-miterlimit="2" stroke-linejoin="miter" stroke-width="1.184"/><text font-size="7" y="9" font-family="Sans Serif" fill="#000" transform="translate(388.518 410.432) scale(1.184)">2</text><path d="M387.328 418.718l-9.472 7.104" stroke-miterlimit="2" stroke-linejoin="miter" stroke-width="1.184"/><path d="M363.648 431.15c0-6.539 5.3-11.84 11.84-11.84s11.84 5.301 11.84 11.84" stroke-width="1.184"/><path d="M375.488 418.718v-17.76" stroke-miterlimit="2" stroke-linejoin="miter" stroke-width="1.184"/><text font-size="7" y="9" font-family="Sans Serif" fill="#000" transform="translate(388.518 410.432) scale(1.184)">2</text><path d="M387.328 418.718l-9.472 7.104" stroke-miterlimit="2" stroke-linejoin="miter" stroke-width="1.184"/></g><g font-size="11" font-weight="400"><path d="M14.903 431.44c0-6.539 5.301-11.84 11.84-11.84s11.84 5.301 11.84 11.84" stroke-width="1.184"/><path d="M14.903 423.44c0-6.539 5.301-11.84 11.84-11.84s11.84 5.301 11.84 11.84" stroke-width="1.184"/><path d="M50.423 432.032h-11.84" stroke-miterlimit="2" stroke-linejoin="miter" stroke-width="1.184"/><path d="M14.903 431.44c0-6.539 5.301-11.84 11.84-11.84s11.84 5.301 11.84 11.84" stroke-width="1.184"/><path d="M26.743 417.824v-17.76M14.903 432.032H3.063M50.423 432.032h-11.84M26.743 417.824v-17.76M14.903 411.008h23.68M14.903 432.032H3.063M50.423 424.032h-11.84M14.903 424.032H3.063M50.423 424.032h-11.84M14.903 424.032H3.063" stroke-miterlimit="2" stroke-linejoin="miter" stroke-width="1.184"/></g><g font-size="11" font-weight="400"><path d="M73.446 410.052h23.68" stroke-miterlimit="2" stroke-linejoin="miter" stroke-width="1.184"/><path d="M73.446 421.892c0-6.539 5.301-11.84 11.84-11.84s11.84 5.301 11.84 11.84" stroke-width="1.184"/><path d="M85.286 416.052v-11.84M73.446 410.052h23.68" stroke-miterlimit="2" stroke-linejoin="miter" stroke-width="1.184"/><path d="M73.446 421.892c0-6.539 5.301-11.84 11.84-11.84s11.84 5.301 11.84 11.84" stroke-width="1.184"/><path d="M85.286 416.052v-11.84" stroke-miterlimit="2" stroke-linejoin="miter" stroke-width="1.184"/><path d="M73.446 427.892c0-6.539 5.301-11.84 11.84-11.84s11.84 5.301 11.84 11.84" stroke-width="1.184"/></g><g font-size="11" font-weight="400"><path d="M131.99 427.892c0-6.539 5.301-11.84 11.84-11.84s11.84 5.301 11.84 11.84" stroke-width="1.184"/><path d="M143.83 416.052v-11.84" stroke-miterlimit="2" stroke-linejoin="miter" stroke-width="1.184"/><path d="M131.99 427.892c0-6.539 5.301-11.84 11.84-11.84s11.84 5.301 11.84 11.84" stroke-width="1.184"/><path d="M143.83 416.052v-11.84" stroke-miterlimit="2" stroke-linejoin="miter" stroke-width="1.184"/><path d="M131.99 421.892c0-6.539 5.301-11.84 11.84-11.84s11.84 5.301 11.84 11.84" stroke-width="1.184"/></g><g font-size="11" font-weight="400"><path d="M237.83 427.892h10.656M273.35 427.892h10.656" stroke-miterlimit="2" stroke-linejoin="miter" stroke-width="1.184"/><path d="M249.67 427.892c0-6.539 5.301-11.84 11.84-11.84s11.84 5.301 11.84 11.84" stroke-width="1.184"/><path d="M261.51 416.052v-11.84M237.83 427.892h10.656M273.35 427.892h10.656" stroke-miterlimit="2" stroke-linejoin="miter" stroke-width="1.184"/><path d="M249.67 427.892c0-6.539 5.301-11.84 11.84-11.84s11.84 5.301 11.84 11.84" stroke-width="1.184"/><path d="M261.51 416.052v-11.84M237.83 421.892h10.656M273.35 421.892h10.656" stroke-miterlimit="2" stroke-linejoin="miter" stroke-width="1.184"/><path d="M249.67 421.892c0-6.539 5.301-11.84 11.84-11.84s11.84 5.301 11.84 11.84" stroke-width="1.184"/><path d="M237.83 421.892h10.656M273.35 421.892h10.656" stroke-miterlimit="2" stroke-linejoin="miter" stroke-width="1.184"/><path d="M249.67 421.892c0-6.539 5.301-11.84 11.84-11.84s11.84 5.301 11.84 11.84" stroke-width="1.184"/></g><g font-size="11" font-weight="400"><path d="M331.302 421.972c0 6.539-5.301 11.84-11.84 11.84s-11.84-5.301-11.84-11.84 5.301-11.84 11.84-11.84 11.84 5.301 11.84 11.84" fill="#fff" stroke-width="1.184"/><path d="M307.622 433.812c0-6.539 5.301-11.84 11.84-11.84s11.84 5.301 11.84 11.84" stroke-width="1.184"/><path d="M319.462 410.132v-11.84" stroke-miterlimit="2" stroke-linejoin="miter" stroke-width="1.184"/><path d="M331.302 421.972c0 6.539-5.301 11.84-11.84 11.84s-11.84-5.301-11.84-11.84 5.301-11.84 11.84-11.84 11.84 5.301 11.84 11.84" fill="#fff" stroke-width="1.184"/><path d="M307.622 433.812c0-6.539 5.301-11.84 11.84-11.84s11.84 5.301 11.84 11.84" stroke-width="1.184"/><path d="M319.462 410.132v-11.84" stroke-miterlimit="2" stroke-linejoin="miter" stroke-width="1.184"/><path d="M307.622 427.812c0-6.539 5.301-11.84 11.84-11.84s11.84 5.301 11.84 11.84" stroke-width="1.184"/></g><g font-size="11" font-weight="400" stroke-miterlimit="2" stroke-linejoin="miter"><path d="M178.49 7.41v7.104M206.85 7.41v7.104" stroke-width="1.184"/><path d="M0-10h60" transform="matrix(.20206 0 0 7.528 166.34 86.462)"/><path d="M0-10h60" transform="matrix(.20206 0 0 7.528 206.88 86.242)"/><path d="M181.69 7.41v7.104" stroke-width="1.184"/><path d="M0-10h60" transform="matrix(.33765 0 0 3.9187 182.46 50.152)"/><path d="M203.36 7.41v7.104" stroke-width="1.184"/></g><path d="M-10-20h40V0h-40v-20" transform="matrix(1.184 0 0 .37879 265.16 14.744)" font-size="11" stroke-miterlimit="2" font-weight="400" stroke-linejoin="miter" fill="#fff"/><path d="M0-10h60" transform="matrix(.96133 0 0 .94054 248.16 20.366)" font-size="11" stroke-miterlimit="2" font-weight="400" stroke-linejoin="miter"/><path d="M753.95 609.35c0 2.116-.944 3.832-2.108 3.832s-2.108-1.715-2.108-3.832.944-3.832 2.108-3.832 2.108 1.715 2.108 3.832" stroke-width=".669" fill="#000" transform="matrix(1 0 0 .55009 -474.85 -324.238)"/><g transform="matrix(1.184 0 0 .37879 96.5 15.541)" stroke-linejoin="miter" font-size="11" font-weight="400" stroke-miterlimit="2" font-family="Ubuntu" fill="#fff"><path d="M-10-22.419h40v20h-40v-20"/><path d="M60-13v6" transform="matrix(.81555 0 0 2.6316 -38.933 33.971)" fill="none"/><path d="M60-13v6" transform="matrix(.81555 0 0 2.6316 -54.934 -5.236)" id="a" stroke-miterlimit="2" font-size="11" font-weight="400" stroke-linejoin="miter" stroke="#000" stroke-linecap="square" fill="none"/><use xlink:href="#a" transform="translate(8 .577)" height="1166.251" width="1312.501"/><use xlink:href="#a" transform="translate(16.001)" height="1166.251" width="1312.501"/><use xlink:href="#a" transform="translate(24.002 .577)" height="1166.251" width="1312.501"/><use xlink:href="#a" transform="translate(32.003 -.288)" height="1166.251" width="1312.501"/></g><g font-size="11" font-weight="400"><path d="M262.792 125.422v28.416h28.416v-28.416h-28.416" fill-rule="evenodd" fill="#fff" stroke-width="1.184"/><path d="M280.744 139.63a3.744 3.744 0 11-7.488 0 3.744 3.744 0 017.488 0" fill-rule="evenodd" fill="#000" stroke-width="1.184"/></g><g font-size="11" stroke-miterlimit="2" font-weight="400" stroke-linejoin="miter" fill="#fff"><path d="M-10-20h40V0h-40v-20" transform="matrix(1.184 0 0 .37879 12.17 14.749)"/></g></g></svg>