
<svg version="1.0" xmlns="http://www.w3.org/2000/svg"
 width="2366.000000pt" height="1776.000000pt" viewBox="0 0 2366.000000 1776.000000"
 preserveAspectRatio="xMidYMid meet" >

<g transform="translate(0.000000,1776.000000) scale(0.100000,-0.100000)"
fill="#ffffff" stroke="white" stroke-width="50">
<path d="M7930 12580 l0 -900 -22 -5 c-243 -53 -368 -95 -553 -185 -670 -326
-1110 -964 -1186 -1720 -15 -147 -6 -378 21 -535 103 -608 452 -1130 978
-1462 183 -115 433 -218 654 -267 l103 -23 3 -902 2 -901 3900 0 3900 0 2 901
3 902 105 23 c487 109 936 398 1231 794 176 236 280 447 353 713 61 221 71
305 71 572 0 255 -8 324 -60 526 -172 670 -668 1221 -1318 1463 -82 31 -242
75 -359 101 l-28 5 0 900 0 900 -3900 0 -3900 0 0 -900z m7090 -355 l0 -545
-27 -5 c-371 -80 -643 -202 -923 -415 -362 -275 -642 -702 -754 -1149 -45
-176 -58 -272 -63 -466 -7 -227 11 -390 62 -591 198 -774 817 -1374 1595
-1548 l105 -23 3 -547 2 -546 -3185 0 -3185 0 0 548 0 547 93 18 c218 44 512
168 717 304 441 292 759 739 889 1246 115 450 81 913 -99 1351 -191 462 -569
863 -1023 1085 -166 81 -317 132 -549 185 l-28 6 0 545 0 545 3185 0 3185 0 0
-545z m-6525 -1250 c169 -26 340 -82 463 -153 l44 -25 -356 -356 -356 -356
-354 354 c-195 195 -352 359 -349 364 10 16 182 93 269 120 81 26 207 53 274
60 91 10 275 5 365 -8z m7170 -13 c556 -120 976 -543 1097 -1105 29 -135 31
-406 5 -540 -55 -273 -182 -519 -372 -716 -354 -367 -853 -514 -1350 -399
-254 59 -492 195 -682 391 -193 199 -317 430 -375 700 -31 146 -31 417 0 564
127 587 581 1022 1167 1118 124 20 388 13 510 -13z m-8235 -1027 l355 -355
-355 -355 c-195 -195 -358 -355 -362 -355 -4 0 -21 27 -38 60 -167 330 -201
720 -93 1065 25 81 121 295 132 295 3 0 166 -160 361 -355z m2154 204 c91
-211 123 -391 113 -628 -6 -148 -25 -255 -67 -381 -23 -71 -110 -260 -119
-260 -3 0 -166 160 -361 355 l-355 355 355 355 355 355 17 -22 c10 -13 38 -71
62 -129z m-934 -1424 c337 -337 353 -355 335 -369 -43 -33 -236 -110 -342
-137 -271 -69 -542 -60 -800 26 -102 34 -263 109 -263 123 0 8 702 712 710
712 3 0 165 -160 360 -355z"/>
<path d="M8290 4736 c-131 -28 -227 -76 -316 -158 l-45 -42 132 -132 132 -132
51 40 c66 53 104 68 168 68 125 0 165 -93 91 -208 -15 -23 -147 -152 -295
-288 l-268 -247 0 -144 0 -143 533 2 532 3 3 178 2 177 -214 0 -215 0 117 109
c198 184 246 242 280 342 43 122 34 258 -23 355 -54 92 -173 175 -300 210 -82
22 -282 27 -365 10z"/>
<path d="M9565 4736 c-142 -33 -231 -77 -314 -157 l-43 -42 128 -128 c71 -71
134 -129 140 -129 6 0 19 10 30 21 10 12 42 34 69 50 40 23 62 29 112 29 55 0
67 -4 95 -28 26 -24 31 -36 31 -74 0 -79 -30 -115 -326 -391 l-278 -259 3
-136 3 -137 533 -3 532 -2 0 180 0 180 -210 2 -210 3 143 132 c172 156 235
241 262 353 61 248 -68 453 -331 525 -82 22 -292 29 -369 11z"/>
<path d="M11030 4734 c-265 -57 -463 -242 -546 -509 -14 -47 -18 -90 -18 -195
0 -120 4 -144 28 -215 70 -204 216 -362 406 -439 195 -79 396 -73 585 19 186
90 312 239 377 445 33 107 33 283 0 390 -65 206 -191 355 -377 445 -146 71
-305 92 -455 59z m297 -394 c72 -36 124 -91 161 -170 21 -45 26 -70 26 -136 0
-72 -4 -89 -32 -147 -38 -76 -92 -129 -171 -165 -46 -22 -71 -26 -136 -26 -65
0 -90 4 -136 26 -79 36 -133 89 -171 166 -29 59 -33 76 -33 147 1 65 6 91 26
135 86 184 287 258 466 170z"/>
<path d="M12732 4283 c-18 -87 -32 -161 -32 -165 0 -3 100 -8 223 -10 248 -3
268 -8 315 -79 l23 -34 -163 -6 c-243 -10 -354 -43 -432 -129 -55 -61 -70
-102 -70 -195 0 -61 5 -92 23 -131 59 -135 227 -217 410 -201 99 9 158 33 212
87 l47 47 6 -30 c3 -16 6 -42 6 -58 l0 -29 200 0 200 0 0 341 c0 367 -5 410
-55 510 -50 98 -158 176 -300 215 -47 13 -118 18 -321 21 l-261 5 -31 -159z
m528 -550 c0 -107 -131 -173 -209 -107 -39 32 -42 80 -8 111 31 29 42 31 135
32 l82 1 0 -37z"/>
<path d="M14500 4422 c-75 -25 -96 -38 -151 -89 l-47 -44 -11 51 c-6 28 -11
58 -11 65 0 13 -31 15 -195 15 l-195 0 0 -535 0 -535 223 2 222 3 5 310 c3
171 9 317 14 325 55 91 168 101 213 18 16 -29 18 -66 21 -345 l3 -313 219 0
218 0 4 303 c3 281 4 304 23 336 28 47 66 73 108 74 49 1 83 -19 104 -62 16
-32 18 -72 21 -343 l4 -308 219 0 220 0 -3 378 c-3 360 -5 380 -26 444 -54
159 -183 253 -367 265 -129 9 -252 -32 -343 -113 l-44 -39 -52 51 c-68 66
-141 95 -256 100 -64 3 -98 0 -140 -14z"/>
<path d="M12102 3751 c-93 -32 -141 -100 -142 -199 0 -120 76 -204 199 -219
133 -15 241 83 241 219 -1 101 -55 174 -152 203 -65 19 -81 19 -146 -4z"/>
</g>
</svg>
