<?xml version="1.0" standalone="no"?>
<!DOCTYPE svg PUBLIC "-//W3C//DTD SVG 20010904//EN"
 "http://www.w3.org/TR/2001/REC-SVG-20010904/DTD/svg10.dtd">
<svg version="1.0" xmlns="http://www.w3.org/2000/svg"
 width="100.000000pt" height="2000.000000pt" viewBox="0 0 1080.000000 1080.000000"
 preserveAspectRatio="xMidYMid meet">

<g transform="translate(0.000000,1080.000000) scale(0.100000,-0.100000)"
fill="rgba(0, 15, 152, 0.5)" stroke="none">
<path d="M5179 10199 c-1533 -69 -2939 -873 -3783 -2162 -664 -1013 -916
-2234 -710 -3442 256 -1498 1249 -2813 2629 -3481 999 -483 2134 -605 3213
-344 2069 500 3573 2334 3651 4453 29 809 -127 1567 -467 2271 -721 1487
-2134 2491 -3774 2681 -111 12 -569 39 -588 33 -3 0 -80 -4 -171 -9z m-858
-2465 c34 -10 677 -375 1739 -987 1846 -1065 1760 -1011 1823 -1144 30 -64 32
-75 32 -178 0 -102 -2 -115 -31 -175 -36 -76 -79 -129 -138 -169 -94 -65
-3365 -1947 -3411 -1963 -71 -25 -189 -24 -267 3 -133 45 -234 147 -272 278
-14 49 -16 251 -16 2026 0 1772 2 1977 16 2026 39 132 148 240 289 285 56 18
172 17 236 -2z"/>
</g>
</svg>
