<?xml version="1.0" standalone="no"?>
<!DOCTYPE svg PUBLIC "-//W3C//DTD SVG 20010904//EN"
 "http://www.w3.org/TR/2001/REC-SVG-20010904/DTD/svg10.dtd">
<svg version="1.0" xmlns="http://www.w3.org/2000/svg"
 width="512.000000pt" height="512.000000pt" viewBox="0 0 512.000000 512.000000"
 preserveAspectRatio="xMidYMid meet">

<g transform="translate(0.000000,512.000000) scale(0.100000,-0.100000)"
fill="#000000" stroke="none">
<path d="M2527 3928 c-79 -125 -507 -881 -507 -895 1 -10 7 -29 15 -43 8 -14
14 -28 15 -32 0 -5 -30 -8 -67 -9 -114 -1 -158 -11 -161 -36 -2 -11 17 -59 42
-105 25 -47 46 -87 46 -90 0 -3 -48 -8 -107 -12 -58 -4 -110 -9 -115 -12 -17
-11 -7 -44 38 -128 25 -48 45 -89 43 -90 -2 -2 -53 -7 -114 -12 -94 -8 -110
-12 -113 -27 -2 -10 17 -58 42 -106 25 -49 46 -92 46 -95 0 -3 -17 -6 -38 -6
-25 0 -44 -6 -54 -17 -25 -30 -518 -891 -518 -906 0 -36 13 -37 530 -37 l505
0 29 -45 c30 -48 55 -68 73 -57 6 4 36 46 67 95 l57 87 59 -90 c78 -118 87
-119 159 -5 29 47 57 85 62 83 5 -2 33 -39 62 -83 72 -109 81 -109 153 -1 31
47 60 86 64 86 4 0 32 -38 61 -85 66 -104 83 -109 131 -35 l33 50 505 0 c520
0 530 1 530 38 0 16 -492 875 -518 905 -9 10 -29 17 -54 17 -21 0 -38 3 -38 8
0 4 21 45 46 91 65 122 63 124 -71 135 -60 5 -112 10 -114 12 -2 2 18 42 43
89 59 110 58 128 -9 137 -27 3 -78 7 -112 7 -35 1 -63 4 -63 8 0 3 21 44 46
91 25 46 44 94 42 105 -4 26 -45 36 -157 36 -66 1 -72 3 -66 19 30 72 30 71 7
115 -12 23 -129 227 -260 452 -250 433 -261 447 -295 393z m270 -489 l232
-402 -25 -49 c-34 -68 -30 -91 21 -100 22 -4 73 -7 113 -7 39 -1 72 -3 72 -5
0 -2 -21 -42 -46 -90 -69 -131 -61 -143 99 -145 48 -1 87 -3 87 -5 0 -2 -20
-42 -45 -87 -71 -133 -62 -149 83 -149 49 0 91 -2 94 -5 3 -3 -17 -47 -43 -98
-27 -50 -49 -95 -49 -99 -1 -22 36 -38 89 -38 l57 0 226 -392 c125 -216 230
-401 233 -410 7 -17 -20 -18 -478 -18 l-486 0 -27 -35 -27 -36 -60 91 c-41 61
-66 90 -79 90 -13 0 -37 -28 -76 -90 -31 -49 -59 -90 -62 -90 -3 0 -31 41 -62
90 -42 65 -63 90 -78 90 -15 0 -36 -25 -78 -90 -31 -49 -59 -90 -62 -90 -3 0
-31 41 -62 90 -39 62 -63 90 -76 90 -13 0 -39 -29 -80 -91 l-60 -92 -24 37
-23 36 -489 0 c-461 0 -488 1 -481 18 3 9 108 194 233 410 l226 392 57 0 c77
0 95 16 73 68 -8 20 -30 64 -49 98 -19 34 -32 64 -28 68 3 3 46 6 95 6 145 0
154 16 83 146 -25 45 -45 85 -45 88 0 3 40 6 89 6 105 0 141 10 141 41 0 11
-20 58 -45 103 -25 46 -45 86 -45 90 0 3 37 7 83 7 153 2 171 18 122 106 l-26
47 119 205 c302 525 347 601 352 601 3 0 110 -181 237 -401z"/>
</g>
</svg>
