<?xml version="1.0" standalone="no"?>
<!DOCTYPE svg PUBLIC "-//W3C//DTD SVG 20010904//EN"
 "http://www.w3.org/TR/2001/REC-SVG-20010904/DTD/svg10.dtd">
<svg version="1.0" xmlns="http://www.w3.org/2000/svg"
 width="512.000000pt" height="512.000000pt" viewBox="0 0 512.000000 512.000000"
 preserveAspectRatio="xMidYMid meet">

<g transform="translate(0.000000,512.000000) scale(0.100000,-0.100000)"
fill="#000000" stroke="none">
<path d="M2748 4790 c-282 -33 -510 -238 -575 -517 l-17 -72 -545 -3 c-606 -3
-573 0 -649 -72 -71 -66 -66 -18 -72 -776 l-5 -685 -260 -5 c-143 -3 -261 -7
-263 -8 -2 -1 -10 -18 -17 -37 -17 -40 -8 -75 27 -99 20 -14 87 -16 601 -16
488 0 582 2 606 15 48 24 56 81 16 120 l-24 25 -261 0 -260 0 0 665 c0 645 1
666 19 684 11 11 35 23 53 26 18 3 258 4 532 3 l500 -3 18 -75 c47 -196 181
-368 348 -448 110 -53 191 -72 316 -72 327 0 589 203 662 515 l19 80 531 0
531 0 23 -23 23 -23 0 -1649 0 -1649 -23 -23 -23 -23 -427 -3 -428 -3 -11 24
c-19 41 -74 97 -117 120 -53 27 -155 29 -207 4 -88 -43 -138 -124 -139 -223
-1 -218 248 -321 408 -170 19 17 40 43 48 58 l14 27 442 3 443 3 53 30 c62 34
106 92 121 156 7 29 11 617 11 1675 0 1766 3 1683 -54 1756 -14 19 -50 48 -78
64 l-53 29 -546 3 -546 3 -10 58 c-26 140 -120 297 -231 386 -141 113 -335
167 -524 145z m256 -179 c47 -17 112 -49 136 -68 2 -2 -65 -73 -150 -158
l-155 -155 -152 152 c-83 83 -150 155 -147 160 11 18 130 70 188 84 79 18 204
11 280 -15z m-436 -648 c-108 -108 -155 -149 -164 -142 -21 18 -65 129 -81
206 -24 116 3 256 68 362 l21 34 154 -154 154 -154 -152 -152z m723 409 c90
-161 86 -382 -8 -526 l-25 -39 -154 154 -154 154 152 152 c84 84 155 153 158
153 3 0 17 -21 31 -48z m-161 -687 c-21 -26 -149 -75 -221 -86 -115 -17 -248
11 -348 72 l-34 21 154 154 154 154 152 -152 c106 -106 149 -155 143 -163z
m399 -3050 c73 -37 43 -155 -39 -155 -82 0 -112 130 -37 160 32 13 44 12 76
-5z"/>
<path d="M551 2234 c-28 -35 -26 -67 3 -101 l24 -28 156 -3 156 -4 0 -716 c0
-801 -3 -758 71 -829 72 -68 67 -68 546 -71 422 -3 432 -4 438 -23 11 -33 65
-89 109 -112 64 -33 166 -31 229 6 94 55 142 164 117 266 -6 28 -21 62 -31 75
-10 13 -19 27 -19 29 0 3 157 148 349 321 224 203 351 325 355 341 7 29 -15
80 -39 89 -57 21 -62 18 -441 -326 l-367 -333 -57 -7 c-95 -11 -165 -58 -204
-135 l-17 -33 -398 0 c-410 0 -451 4 -471 40 -6 12 -10 281 -10 719 l0 701
144 0 c165 0 202 9 221 53 15 36 3 82 -25 97 -11 6 -177 10 -419 10 l-400 0
-20 -26z m1665 -1608 c56 -47 20 -146 -52 -146 -34 0 -84 51 -84 85 0 34 50
85 84 85 14 0 37 -11 52 -24z"/>
</g>
</svg>
